<svg width="335" height="170" fill="none" xmlns="http://www.w3.org/2000/svg"><rect width="335" height="170" rx="12" fill="#FFD15C" fill-opacity=".44"/><mask id="prefix__a" style="mask-type:luminance" maskUnits="userSpaceOnUse" x="0" y="0" width="335" height="170"><rect width="335" height="170" rx="12" fill="#fff"/></mask><g mask="url(#prefix__a)"><path d="M320.8 7.4c0-1.3-1.1-2.4-2.4-2.4-1.3 0-2.4 1.1-2.4 2.4 0 .5.6.8 1.3.9v2.3h2V8.3c.9-.2 1.5-.5 1.5-.9zM272.6 27.175c1-.8 1.2-2.3.3-3.3-.8-1-2.3-1.2-3.3-.3-.4.3-.2.9.2 1.6l-1.8 1.4 1.3 1.6 1.8-1.5c.5.5 1.1.8 1.5.5z" fill="#FFD15C"/><path fill-rule="evenodd" clip-rule="evenodd" d="M315.194 24.2c0-1.2 1-2.2 2.2-2.2 1.3 0 2.3 1 2.2 2.2 0 1.2-1 2.2-2.2 2.2-1.2 0-2.2-1-2.2-2.2zm.8 0c0 .8.6 1.4 1.4 1.4.8 0 1.4-.6 1.4-1.4 0-.8-.6-1.4-1.4-1.4-.8 0-1.4.6-1.4 1.4zM276 5.2c0-1.2 1-2.2 2.2-2.2 1.3 0 2.3 1 2.2 2.2 0 1.2-1 2.2-2.2 2.2-1.2 0-2.2-1-2.2-2.2zm.8 0c0 .8.6 1.4 1.4 1.4.8 0 1.4-.6 1.4-1.4 0-.8-.6-1.4-1.4-1.4-.8 0-1.4.6-1.4 1.4zM308 35.714c0-1.2 1-2.2 2.2-2.2 1.2 0 2.2 1 2.2 2.2 0 1.2-1 2.2-2.2 2.2-1.2 0-2.2-1-2.2-2.2zm.8-.1c0 .8.6 1.4 1.4 1.4.8 0 1.4-.6 1.4-1.4 0-.8-.6-1.4-1.4-1.4-.8 0-1.4.6-1.4 1.4z" fill="#FF7058"/><path d="M107.5 204s-170-27 60-42 158.5 60.5 133-52 56 68.5 29.5-15 161-24 29.5-87-32 104-167 53.5S76-80 76-80" stroke="#868686" stroke-linecap="round" stroke-dasharray="5"/><path opacity=".84" d="M25.953 120v-4.852l4-6.421h-1.601l-3.04 5.007h-.125l-3.039-5.007h-1.601l4 6.421V120h1.406zm7.545.148c2.399 0 3.883-1.656 3.883-4.359 0-2.711-1.484-4.359-3.883-4.359-2.398 0-3.882 1.648-3.882 4.359 0 2.703 1.484 4.359 3.882 4.359zm0-1.21c-1.593 0-2.492-1.157-2.492-3.149 0-2 .899-3.148 2.492-3.148 1.594 0 2.493 1.148 2.493 3.148 0 1.992-.899 3.149-2.493 3.149zm12.405-7.36H44.56v4.984c0 1.477-.812 2.36-2.296 2.36-1.344 0-1.907-.703-1.907-2.219v-5.125h-1.343v5.453c0 1.992.984 3.117 2.875 3.117 1.289 0 2.187-.531 2.609-1.468h.125V120h1.281v-8.422zm3.249 1.36l1.257-4.211h-1.523l-.711 4.211h.977zm9.701-1.36h-1.437l-2.305 6.938h-.125l-2.305-6.938h-1.437L54.36 120h1.375l3.117-8.422zm4.444 1.039c1.336 0 2.226.985 2.258 2.477h-4.64c.1-1.492 1.038-2.477 2.382-2.477zm2.219 5.203c-.352.742-1.086 1.141-2.172 1.141-1.43 0-2.36-1.055-2.43-2.719v-.062h6.055v-.516c0-2.617-1.383-4.234-3.656-4.234-2.313 0-3.797 1.718-3.797 4.367 0 2.664 1.46 4.351 3.797 4.351 1.843 0 3.14-.882 3.546-2.328h-1.343zm7.84-8.422v2.18h-1.36v1.125h1.36v5.109c0 1.61.696 2.25 2.43 2.25.266 0 .523-.031.789-.078v-1.132c-.25.023-.383.031-.625.031-.875 0-1.25-.422-1.25-1.414v-4.766h1.875v-1.125H74.7v-2.18h-1.344zm8.186 10.75c2.399 0 3.883-1.656 3.883-4.359 0-2.711-1.484-4.359-3.883-4.359-2.398 0-3.883 1.648-3.883 4.359 0 2.703 1.485 4.359 3.883 4.359zm0-1.21c-1.594 0-2.492-1.157-2.492-3.149 0-2 .898-3.148 2.492-3.148 1.594 0 2.492 1.148 2.492 3.148 0 1.992-.898 3.149-2.492 3.149zm13.169 1.21c2.398 0 3.883-1.656 3.883-4.359 0-2.711-1.485-4.359-3.883-4.359-2.398 0-3.883 1.648-3.883 4.359 0 2.703 1.484 4.359 3.883 4.359zm0-1.21c-1.594 0-2.492-1.157-2.492-3.149 0-2 .898-3.148 2.492-3.148 1.594 0 2.492 1.148 2.492 3.148 0 1.992-.898 3.149-2.492 3.149zm5.592 1.062h1.344v-5.219c0-1.187.93-2.047 2.211-2.047.265 0 .75.047.859.078v-1.343a5.65 5.65 0 00-.672-.039c-1.117 0-2.086.578-2.336 1.398h-.125v-1.25h-1.281V120zm8.577.148c1.164 0 2.164-.554 2.695-1.492h.125V120h1.281v-11.766h-1.344v4.672h-.117c-.476-.922-1.468-1.476-2.64-1.476-2.141 0-3.539 1.718-3.539 4.359 0 2.649 1.382 4.359 3.539 4.359zm.312-7.507c1.524 0 2.477 1.218 2.477 3.148 0 1.945-.946 3.149-2.477 3.149-1.539 0-2.461-1.18-2.461-3.149 0-1.961.93-3.148 2.461-3.148zm9.358-.024c1.336 0 2.227.985 2.258 2.477h-4.641c.102-1.492 1.039-2.477 2.383-2.477zm2.219 5.203c-.352.742-1.086 1.141-2.172 1.141-1.43 0-2.359-1.055-2.43-2.719v-.062h6.055v-.516c0-2.617-1.383-4.234-3.656-4.234-2.313 0-3.797 1.718-3.797 4.367 0 2.664 1.461 4.351 3.797 4.351 1.843 0 3.14-.882 3.547-2.328h-1.344zm3.162 2.18h1.344v-5.219c0-1.187.93-2.047 2.211-2.047.266 0 .75.047.859.078v-1.343a5.65 5.65 0 00-.672-.039c-1.117 0-2.085.578-2.335 1.398h-.125v-1.25h-1.282V120zm12.403-1.031c-.976 0-1.703-.5-1.703-1.36 0-.843.563-1.289 1.844-1.375l2.266-.148v.773c0 1.203-1.024 2.11-2.407 2.11zm-.25 1.179c1.125 0 2.047-.492 2.594-1.39h.125V120h1.281v-5.766c0-1.75-1.148-2.804-3.203-2.804-1.797 0-3.125.89-3.304 2.242h1.359c.187-.664.891-1.047 1.898-1.047 1.258 0 1.907.57 1.907 1.609V115l-2.43.148c-1.961.118-3.07.985-3.07 2.493 0 1.539 1.211 2.507 2.843 2.507zm6.647-10.75v2.18h-1.359v1.125h1.359v5.109c0 1.61.696 2.25 2.43 2.25.266 0 .523-.031.789-.078v-1.132c-.25.023-.383.031-.625.031-.875 0-1.25-.422-1.25-1.414v-4.766h1.875v-1.125h-1.875v-2.18h-1.344zM151.775 120h1.344v-11.766h-1.344V120zm6.913-7.383c1.335 0 2.226.985 2.257 2.477h-4.64c.101-1.492 1.039-2.477 2.383-2.477zm2.218 5.203c-.351.742-1.086 1.141-2.172 1.141-1.429 0-2.359-1.055-2.429-2.719v-.062h6.054v-.516c0-2.617-1.382-4.234-3.656-4.234-2.312 0-3.797 1.718-3.797 4.367 0 2.664 1.461 4.351 3.797 4.351 1.844 0 3.141-.882 3.547-2.328h-1.344zm5.757 1.149c-.977 0-1.704-.5-1.704-1.36 0-.843.563-1.289 1.844-1.375l2.266-.148v.773c0 1.203-1.024 2.11-2.406 2.11zm-.25 1.179c1.125 0 2.046-.492 2.593-1.39h.125V120h1.282v-5.766c0-1.75-1.149-2.804-3.204-2.804-1.796 0-3.125.89-3.304 2.242h1.359c.188-.664.891-1.047 1.899-1.047 1.257 0 1.906.57 1.906 1.609V115l-2.43.148c-1.961.118-3.07.985-3.07 2.493 0 1.539 1.211 2.507 2.844 2.507zm5.889-6.265c0 1.219.718 1.898 2.296 2.281l1.446.352c.898.218 1.336.609 1.336 1.187 0 .774-.813 1.313-1.946 1.313-1.078 0-1.75-.454-1.976-1.164h-1.383c.148 1.398 1.437 2.296 3.312 2.296 1.915 0 3.375-1.039 3.375-2.546 0-1.211-.765-1.899-2.351-2.282l-1.297-.312c-.992-.242-1.461-.602-1.461-1.18 0-.75.781-1.258 1.781-1.258 1.016 0 1.672.446 1.852 1.118h1.328c-.18-1.383-1.406-2.258-3.172-2.258-1.789 0-3.14 1.054-3.14 2.453zm8.654-4.485v2.18h-1.359v1.125h1.359v5.109c0 1.61.696 2.25 2.43 2.25.266 0 .523-.031.789-.078v-1.132c-.25.023-.383.031-.625.031-.875 0-1.25-.422-1.25-1.414v-4.766h1.875v-1.125H182.3v-2.18h-1.344zm13.419 11.672v-1.054c2.203-.18 3.484-1.352 3.484-3.204 0-1.562-.882-2.515-2.812-3.031l-.672-.164v-3.82c1.148.141 1.922.875 1.953 1.851h1.328c-.054-1.695-1.344-2.898-3.281-3.062V107.5h-1.047v1.094c-1.992.195-3.226 1.367-3.226 3.07 0 1.438.921 2.469 2.601 2.914l.625.172v4.062c-1.281-.156-2.078-.851-2.164-1.898h-1.336c.008 1.727 1.383 2.953 3.5 3.109v1.047h1.047zm2.133-4.148c0 1.148-.774 1.844-2.133 1.914v-3.875c1.469.312 2.133.922 2.133 1.961zm-5.063-5.336c0-.977.789-1.727 1.883-1.789v3.594c-1.234-.258-1.883-.883-1.883-1.805zM202.584 120h1.407v-11.273h-1.399l-3 2.156v1.484l2.867-2.078h.125V120zm8.163.266c2.531 0 3.984-2.141 3.984-5.883 0-3.735-1.476-5.922-3.984-5.922-2.524 0-4 2.18-4 5.898 0 3.75 1.461 5.907 4 5.907zm0-1.227c-1.664 0-2.586-1.664-2.586-4.68 0-2.976.937-4.664 2.586-4.664 1.648 0 2.57 1.672 2.57 4.664 0 3.024-.906 4.68-2.57 4.68zm10.575.961h1.344v-7.297h1.929v-1.125h-1.929v-.898c0-.922.406-1.391 1.375-1.391.242 0 .468.008.632.039v-1.094a4.771 4.771 0 00-.906-.078c-1.601 0-2.445.805-2.445 2.485v.937h-1.399v1.125h1.399V120zm7.936.148c2.398 0 3.883-1.656 3.883-4.359 0-2.711-1.485-4.359-3.883-4.359-2.399 0-3.883 1.648-3.883 4.359 0 2.703 1.484 4.359 3.883 4.359zm0-1.21c-1.594 0-2.492-1.157-2.492-3.149 0-2 .898-3.148 2.492-3.148 1.594 0 2.492 1.148 2.492 3.148 0 1.992-.898 3.149-2.492 3.149zM234.85 120h1.344v-5.219c0-1.187.929-2.047 2.211-2.047.265 0 .75.047.859.078v-1.343a5.65 5.65 0 00-.672-.039c-1.117 0-2.086.578-2.336 1.398h-.125v-1.25h-1.281V120zM28.078 135.578h-1.344v4.984c0 1.477-.812 2.36-2.297 2.36-1.343 0-1.906-.703-1.906-2.219v-5.125h-1.343v5.453c0 1.992.984 3.117 2.875 3.117 1.289 0 2.187-.531 2.609-1.468h.125V144h1.281v-8.422zm1.936 2.305c0 1.219.719 1.898 2.297 2.281l1.445.352c.899.218 1.336.609 1.336 1.187 0 .774-.812 1.313-1.945 1.313-1.078 0-1.75-.454-1.977-1.164h-1.383c.149 1.398 1.438 2.296 3.313 2.296 1.914 0 3.375-1.039 3.375-2.546 0-1.211-.766-1.899-2.352-2.282l-1.296-.312c-.993-.242-1.461-.602-1.461-1.18 0-.75.78-1.258 1.78-1.258 1.017 0 1.673.446 1.852 1.118h1.329c-.18-1.383-1.407-2.258-3.172-2.258-1.79 0-3.14 1.054-3.14 2.453zM38.216 144h1.343v-8.422h-1.343V144zm.672-10.133a.94.94 0 00.937-.937.94.94 0 00-.938-.938.94.94 0 00-.937.938.94.94 0 00.938.937zM41.722 144h1.344v-4.984c0-1.477.867-2.375 2.21-2.375 1.344 0 1.985.718 1.985 2.234V144h1.344v-5.453c0-2-1.055-3.117-2.946-3.117-1.289 0-2.109.547-2.53 1.476h-.126v-1.328h-1.281V144zm12.35-1.312c-1.563 0-2.438-1.188-2.438-3.024s.875-3.023 2.438-3.023c1.555 0 2.5 1.187 2.5 3.023s-.938 3.024-2.5 3.024zm.062 4.546c2.297 0 3.75-1.203 3.75-3.086v-8.57h-1.28v1.336h-.126c-.484-.906-1.523-1.484-2.703-1.484-2.164 0-3.531 1.711-3.531 4.234 0 2.524 1.351 4.211 3.531 4.211 1.156 0 2.11-.523 2.64-1.453h.126v1.656c0 1.242-.899 1.984-2.407 1.984-1.21 0-1.96-.445-2.109-1.132h-1.422c.203 1.39 1.5 2.304 3.531 2.304zM64.694 144h1.343v-7.297h1.93v-1.125h-1.93v-.898c0-.922.407-1.391 1.375-1.391.243 0 .47.008.633.039v-1.094a4.774 4.774 0 00-.906-.078c-1.602 0-2.445.805-2.445 2.485v.937h-1.399v1.125h1.399V144zm4.834 0h1.344v-5.219c0-1.187.93-2.047 2.21-2.047.266 0 .75.047.86.078v-1.343a5.65 5.65 0 00-.672-.039c-1.117 0-2.086.578-2.336 1.398h-.125v-1.25h-1.28V144zm8.819-7.383c1.336 0 2.226.985 2.258 2.477h-4.64c.1-1.492 1.038-2.477 2.382-2.477zm2.219 5.203c-.352.742-1.086 1.141-2.172 1.141-1.43 0-2.36-1.055-2.43-2.719v-.062h6.055v-.516c0-2.617-1.383-4.234-3.657-4.234-2.312 0-3.796 1.718-3.796 4.367 0 2.664 1.46 4.351 3.796 4.351 1.844 0 3.141-.882 3.547-2.328h-1.343zm6.522-5.203c1.335 0 2.226.985 2.257 2.477h-4.64c.101-1.492 1.039-2.477 2.383-2.477zm2.218 5.203c-.351.742-1.086 1.141-2.172 1.141-1.43 0-2.359-1.055-2.43-2.719v-.062h6.055v-.516c0-2.617-1.382-4.234-3.656-4.234-2.312 0-3.797 1.718-3.797 4.367 0 2.664 1.461 4.351 3.797 4.351 1.844 0 3.14-.882 3.547-2.328h-1.344zm10.396 2.328c1.164 0 2.164-.554 2.695-1.492h.125V144h1.281v-11.766h-1.344v4.672h-.117c-.476-.922-1.469-1.476-2.64-1.476-2.141 0-3.54 1.718-3.54 4.359 0 2.649 1.383 4.359 3.54 4.359zm.312-7.507c1.523 0 2.477 1.218 2.477 3.148 0 1.945-.946 3.149-2.477 3.149-1.539 0-2.46-1.18-2.46-3.149 0-1.961.929-3.148 2.46-3.148zm9.358-.024c1.336 0 2.226.985 2.258 2.477h-4.641c.102-1.492 1.039-2.477 2.383-2.477zm2.219 5.203c-.352.742-1.086 1.141-2.172 1.141-1.43 0-2.36-1.055-2.43-2.719v-.062h6.055v-.516c0-2.617-1.383-4.234-3.657-4.234-2.312 0-3.796 1.718-3.796 4.367 0 2.664 1.461 4.351 3.796 4.351 1.844 0 3.141-.882 3.547-2.328h-1.343zm3.24 2.18h1.344v-11.766h-1.344V144zm3.585 0h1.343v-8.422h-1.343V144zm.672-10.133a.94.94 0 00.937-.937.94.94 0 00-.937-.938.94.94 0 00-.938.938.94.94 0 00.938.937zm9.709 1.711h-1.438l-2.304 6.938h-.125l-2.305-6.938h-1.437l3.117 8.422h1.375l3.117-8.422zm4.444 1.039c1.336 0 2.226.985 2.257 2.477h-4.64c.101-1.492 1.039-2.477 2.383-2.477zm2.218 5.203c-.351.742-1.086 1.141-2.172 1.141-1.429 0-2.359-1.055-2.429-2.719v-.062h6.054v-.516c0-2.617-1.382-4.234-3.656-4.234-2.312 0-3.797 1.718-3.797 4.367 0 2.664 1.461 4.351 3.797 4.351 1.844 0 3.141-.882 3.547-2.328h-1.344zm3.163 2.18h1.344v-5.219c0-1.187.929-2.047 2.211-2.047.265 0 .75.047.859.078v-1.343a5.65 5.65 0 00-.672-.039c-1.117 0-2.086.578-2.336 1.398h-.125v-1.25h-1.281V144zm6.412 3.047c1.493 0 2.164-.578 2.883-2.531l3.289-8.938h-1.429l-2.305 6.93h-.125l-2.313-6.93h-1.453l3.117 8.43-.156.5c-.351 1.015-.773 1.383-1.547 1.383-.187 0-.398-.008-.562-.039V147c.187.031.422.047.601.047zM157.281 144h1.344v-7.297h1.93v-1.125h-1.93v-.898c0-.922.406-1.391 1.375-1.391.242 0 .469.008.633.039v-1.094a4.771 4.771 0 00-.906-.078c-1.602 0-2.446.805-2.446 2.485v.937h-1.398v1.125h1.398V144zm7.936.148c2.399 0 3.883-1.656 3.883-4.359 0-2.711-1.484-4.359-3.883-4.359-2.398 0-3.883 1.648-3.883 4.359 0 2.703 1.485 4.359 3.883 4.359zm0-1.21c-1.594 0-2.492-1.157-2.492-3.149 0-2 .898-3.148 2.492-3.148 1.594 0 2.492 1.148 2.492 3.148 0 1.992-.898 3.149-2.492 3.149zm5.592 1.062h1.344v-5.219c0-1.187.93-2.047 2.211-2.047.266 0 .75.047.859.078v-1.343a5.633 5.633 0 00-.671-.039c-1.118 0-2.086.578-2.336 1.398h-.125v-1.25h-1.282V144zm12.497 0h1.406v-11.273h-1.398l-3 2.156v1.484l2.867-2.078h.125V144zm8.497 0h1.344v-5.219c0-1.187.851-2.14 1.953-2.14 1.063 0 1.758.64 1.758 1.64V144h1.344v-5.414c0-1.07.781-1.945 1.953-1.945 1.187 0 1.773.609 1.773 1.851V144h1.344v-5.82c0-1.766-.961-2.75-2.68-2.75-1.164 0-2.125.586-2.578 1.476h-.125c-.391-.875-1.187-1.476-2.328-1.476-1.125 0-1.969.539-2.352 1.476h-.125v-1.328h-1.281V144zm16.983.148c2.398 0 3.883-1.656 3.883-4.359 0-2.711-1.485-4.359-3.883-4.359-2.399 0-3.883 1.648-3.883 4.359 0 2.703 1.484 4.359 3.883 4.359zm0-1.21c-1.594 0-2.492-1.157-2.492-3.149 0-2 .898-3.148 2.492-3.148 1.594 0 2.492 1.148 2.492 3.148 0 1.992-.898 3.149-2.492 3.149zm5.592 1.062h1.344v-4.984c0-1.477.867-2.375 2.211-2.375 1.344 0 1.984.718 1.984 2.234V144h1.344v-5.453c0-2-1.055-3.117-2.945-3.117-1.289 0-2.11.547-2.532 1.476h-.125v-1.328h-1.281V144zm9.506-10.602v2.18h-1.359v1.125h1.359v5.109c0 1.61.696 2.25 2.43 2.25.266 0 .523-.031.789-.078v-1.132c-.25.023-.383.031-.625.031-.875 0-1.25-.422-1.25-1.414v-4.766h1.875v-1.125h-1.875v-2.18h-1.344zM228.812 144h1.344v-4.984c0-1.422.828-2.375 2.336-2.375 1.274 0 1.946.742 1.946 2.234V144h1.343v-5.453c0-1.977-1.125-3.117-2.906-3.117-1.289 0-2.172.547-2.594 1.476h-.125v-4.672h-1.344V144zm10.132.078c.562 0 1.015-.461 1.015-1.016 0-.562-.453-1.015-1.015-1.015-.555 0-1.016.453-1.016 1.015 0 .555.461 1.016 1.016 1.016z" fill="#010F07"/><path d="M25.264 48v-8.053h8.271v-2.87h-8.271v-5.825h9.05v-2.98H21.737V48h3.528zm11.459 0h3.404v-8.435c0-2.038 1.162-3.282 3.09-3.282.574 0 1.094.082 1.381.192v-3.077a4.844 4.844 0 00-1.066-.136c-1.71 0-2.98 1.011-3.473 2.775h-.069v-2.53h-3.267V48zm15.506-12.154c1.955 0 3.268 1.435 3.336 3.486h-6.767c.136-2.023 1.517-3.486 3.431-3.486zm3.35 7.82c-.37 1.203-1.572 1.996-3.159 1.996-2.228 0-3.65-1.559-3.65-3.883v-.205h10.131v-1.107c0-4.402-2.57-7.26-6.686-7.26-4.183 0-6.836 3.021-6.836 7.602 0 4.62 2.626 7.478 6.973 7.478 3.432 0 5.975-1.887 6.412-4.621H55.58zm11.951-7.82c1.955 0 3.268 1.435 3.336 3.486H64.1c.136-2.023 1.517-3.486 3.431-3.486zm3.35 7.82c-.37 1.203-1.572 1.996-3.158 1.996-2.229 0-3.65-1.559-3.65-3.883v-.205h10.13v-1.107c0-4.402-2.57-7.26-6.685-7.26-4.184 0-6.836 3.021-6.836 7.602 0 4.62 2.625 7.478 6.972 7.478 3.432 0 5.975-1.887 6.412-4.621H70.88zm11.83-15.394V48h7.206c5.906 0 9.379-3.664 9.379-9.912 0-6.248-3.487-9.817-9.38-9.817H82.71zm3.528 2.98h3.308c3.938 0 6.153 2.433 6.153 6.85 0 4.498-2.188 6.918-6.153 6.918h-3.308V31.252zm21.946 4.594c1.955 0 3.267 1.435 3.335 3.486h-6.767c.137-2.023 1.517-3.486 3.432-3.486zm3.349 7.82c-.369 1.203-1.572 1.996-3.158 1.996-2.229 0-3.65-1.559-3.65-3.883v-.205h10.13v-1.107c0-4.402-2.57-7.26-6.685-7.26-4.184 0-6.836 3.021-6.836 7.602 0 4.62 2.625 7.478 6.973 7.478 3.431 0 5.974-1.887 6.412-4.621h-3.186zM117.332 48h3.405V28.271h-3.405V48zm6.565 0h3.404V33.508h-3.404V48zm1.695-16.393c1.067 0 1.901-.82 1.901-1.845 0-1.04-.834-1.86-1.901-1.86-1.052 0-1.886.82-1.886 1.86 0 1.025.834 1.845 1.886 1.845zm17.503 1.9h-3.555l-3.363 11.335h-.069l-3.363-11.334h-3.637L134.249 48h3.746l5.1-14.492zm7.59 2.339c1.955 0 3.267 1.435 3.336 3.486h-6.768c.137-2.023 1.518-3.486 3.432-3.486zm3.349 7.82c-.369 1.203-1.572 1.996-3.158 1.996-2.228 0-3.65-1.559-3.65-3.883v-.205h10.131v-1.107c0-4.402-2.571-7.26-6.686-7.26-4.183 0-6.836 3.021-6.836 7.602 0 4.62 2.625 7.478 6.973 7.478 3.431 0 5.974-1.887 6.412-4.621h-3.186zM159.738 48h3.404v-8.435c0-2.038 1.162-3.282 3.09-3.282.574 0 1.094.082 1.381.192v-3.077a4.845 4.845 0 00-1.067-.136c-1.709 0-2.98 1.011-3.472 2.775h-.069v-2.53h-3.267V48zm11.418 5.387c3.309 0 4.908-1.217 6.152-4.813l5.237-15.066h-3.582l-3.418 11.594h-.055l-3.418-11.594h-3.719l5.155 14.506c.013.04-.192.765-.192.806-.383 1.34-1.107 1.873-2.515 1.873-.205 0-.807-.013-.985-.054v2.693c.178.041 1.149.055 1.34.055zM191.081 48h3.404V36.133h2.844v-2.584h-2.899v-1.19c0-1.175.588-1.79 1.887-1.79.396 0 .793.04 1.08.081v-2.378c-.424-.082-1.162-.15-1.832-.15-3.145 0-4.484 1.325-4.484 4.142v1.285h-1.983v2.584h1.983V48zm14.562.287c4.252 0 7.014-2.83 7.014-7.533 0-4.69-2.789-7.547-7.014-7.547-4.224 0-7.013 2.871-7.013 7.547 0 4.703 2.761 7.533 7.013 7.533zm0-2.693c-2.16 0-3.554-1.75-3.554-4.84 0-3.076 1.408-4.84 3.554-4.84 2.161 0 3.555 1.764 3.555 4.84 0 3.09-1.394 4.84-3.555 4.84zM215.025 48h3.404v-8.435c0-2.038 1.162-3.282 3.09-3.282.574 0 1.093.082 1.381.192v-3.077a4.854 4.854 0 00-1.067-.136c-1.709 0-2.98 1.011-3.473 2.775h-.068v-2.53h-3.267V48zM26.44 84h3.458V64.272h-3.486l-5.154 3.622v3.323l5.1-3.582h.081V84zm34.69 0V64.272h-4.075L51.012 79.16h-.109L44.86 64.272h-4.088V84h3.186V70h.095l5.702 13.836h2.406L57.862 70h.096v14h3.172zm9.736.287c4.252 0 7.014-2.83 7.014-7.533 0-4.69-2.79-7.547-7.014-7.547s-7.014 2.871-7.014 7.547c0 4.703 2.762 7.533 7.014 7.533zm0-2.693c-2.16 0-3.555-1.75-3.555-4.84 0-3.076 1.409-4.84 3.555-4.84 2.16 0 3.555 1.764 3.555 4.84 0 3.09-1.395 4.84-3.555 4.84zM80.247 84h3.405v-8.394c0-2.079 1.244-3.487 3.199-3.487 1.941 0 2.898 1.149 2.898 3.2V84h3.405v-9.365c0-3.35-1.819-5.4-5.018-5.4-2.228 0-3.773 1.038-4.553 2.761h-.068v-2.488h-3.268V84zm16.764-17.883v3.39h-2.078v2.626h2.078v8.011c0 2.817 1.23 3.924 4.362 3.924.724 0 1.394-.054 1.763-.136v-2.598a6.59 6.59 0 01-.97.068c-1.203 0-1.75-.546-1.75-1.736v-7.533h2.734v-2.625h-2.734v-3.39h-3.405zM105.75 84h3.404v-8.326c0-2.133 1.244-3.555 3.295-3.555 1.969 0 2.981 1.217 2.981 3.24V84h3.404v-9.338c0-3.322-1.873-5.428-5.072-5.428-2.202 0-3.801.998-4.58 2.762h-.069v-7.724h-3.363V84zm17.024-19.728l.273 13.22h2.967l.273-13.22h-3.513zm1.75 20.001c1.121 0 1.996-.86 1.996-1.941 0-1.08-.875-1.928-1.996-1.928-1.108 0-1.983.848-1.983 1.928s.875 1.941 1.983 1.941z" fill="#010F07"/><path d="M335.057 57.85c11.422 4.83 16.966 18.07 12.283 29.66-4.757 11.776-18.128 17.375-29.811 12.654-11.589-4.682-17.301-17.775-12.803-29.44l21.603 8.729 8.728-21.604z" fill="#FF7058"/><path d="M326.329 79.453l7.155-17.71c9.289 3.97 13.69 14.7 9.907 24.064-3.859 9.55-14.794 14.192-24.344 10.333-9.364-3.783-13.933-14.365-10.427-23.842l17.709 7.155z" fill="#FFD15C"/><path d="M318.034 88.504a1.5 1.5 0 10-2.783-1.123 1.5 1.5 0 002.783 1.123z" fill="#F8B64C"/><path d="M311.589 78.027a1.686 1.686 0 00-2.213.94 1.685 1.685 0 00.939 2.213c.279.112.614-.184.931-.703l1.577.637.562-1.39-1.577-.637c.188-.464.152-.91-.219-1.06zM335.738 91.667a1.568 1.568 0 00-2.039-.824 1.57 1.57 0 00-.825 2.04c.111.26.519.317 1.095.226l.608 1.432 1.209-.59-.608-1.432c.428-.258.671-.592.56-.852z" fill="#F2F2F2"/><path fill-rule="evenodd" clip-rule="evenodd" d="M333.217 79.755a1.58 1.58 0 01-.884-2.083 1.58 1.58 0 012.083-.884 1.58 1.58 0 01.884 2.083 1.58 1.58 0 01-2.083.884zm.225-.556c.556.225 1.077.004 1.301-.553a1.001 1.001 0 00-.552-1.302c-.556-.224-1.077-.003-1.302.553-.225.556-.004 1.077.553 1.302zM327.762 94.592c-.742-.3-1.129-1.211-.829-1.953.3-.742 1.173-1.036 1.953-.829.741.3 1.128 1.211.829 1.953-.3.742-1.211 1.129-1.953.829zm.225-.556a.896.896 0 001.171-.498.895.895 0 00-.497-1.171.897.897 0 00-1.172.497.896.896 0 00.498 1.172z" fill="#FF7058"/><path d="M319.008 59.13l-1.658-3.905a22.476 22.476 0 0116.677-.165l-8.167 20.213-6.852-16.142z" fill="#FF7058"/><path d="M325.86 75.273l-6.852-16.142c4.129-1.676 8.92-1.79 13.408-.084l-6.556 16.226z" fill="#FFD15C"/><path d="M330.463 59.876c-.294-.874-1.276-1.378-2.15-1.084-.874.294-1.379 1.276-1.085 2.15.073.353.574.447 1.15.357l.533 1.617 1.357-.422-.532-1.618c.465-.35.838-.74.727-1z" fill="#F2F2F2"/><path fill-rule="evenodd" clip-rule="evenodd" d="M325.508 69.738a1.58 1.58 0 01-.884-2.083 1.58 1.58 0 012.083-.884 1.58 1.58 0 01.884 2.083 1.58 1.58 0 01-2.083.884zm.317-.519c.557.225 1.077.004 1.302-.552.187-.464-.089-1.115-.552-1.302a1.002 1.002 0 00-1.302.552 1.002 1.002 0 00.552 1.302zM323.301 63.454a1.58 1.58 0 01-.884-2.083 1.58 1.58 0 012.083-.884 1.58 1.58 0 01.884 2.083 1.58 1.58 0 01-2.083.884zm.318-.52a1.003 1.003 0 001.302-.552 1.003 1.003 0 00-.553-1.301c-.556-.225-1.077-.004-1.302.552-.224.556-.003 1.077.553 1.302z" fill="#FF7058"/><path d="M334.81 86.223a1.9 1.9 0 10-3.523-1.424 1.9 1.9 0 003.523 1.424zM339.174 70.082a1.9 1.9 0 10-3.524-1.423 1.9 1.9 0 003.524 1.423z" fill="#F8B64C"/><path d="M316.795 60.07l6.852 16.142-20.212-8.166a22.472 22.472 0 0111.702-11.881l1.658 3.905z" fill="#FF7058"/><path d="M316.795 60.07l6.852 16.142-16.226-6.555c1.891-4.413 5.264-7.688 9.374-9.587z" fill="#FFD15C"/><path fill-rule="evenodd" clip-rule="evenodd" d="M314.715 65.485a1.58 1.58 0 01-.884-2.083 1.58 1.58 0 012.083-.884 1.58 1.58 0 01.884 2.083 1.58 1.58 0 01-2.083.884zm.225-.556c.557.225 1.077.004 1.302-.553.225-.556.004-1.077-.553-1.302a1.001 1.001 0 00-1.301.553c-.225.556-.004 1.077.552 1.302z" fill="#FF7058"/><path d="M319.431 71.165a1.9 1.9 0 10-3.523-1.423 1.9 1.9 0 003.523 1.423zM311.425 66.42c.241.206.314.559.109.8-.653.814-.509 2.06.343 2.62.241.204.314.557.109.798-.205.24-.558.314-.799.109-1.296-1.063-1.531-2.884-.561-4.218.205-.24.558-.313.799-.108zM335.082 72.204c-.113.278-.466.35-.744.239-.852-.56-2.042-.286-2.639.659-.112.278-.466.351-.744.239-.278-.113-.351-.466-.239-.744.878-1.371 2.681-1.829 4.089-1.044.409.057.482.41.277.65zM330.061 79.558a1.4 1.4 0 10-2.596-1.048 1.4 1.4 0 002.596 1.048z" fill="#F8B64C"/><path d="M324.233 94.784c-.43.797-1.397 1.054-2.156.531-.797-.43-1.054-1.396-.531-2.156.112-.278.613-.184 1.114-.089l.748-1.316 1.13.673-.785 1.408c.426.28.685.708.48.949z" fill="#F2F2F2"/><path d="M321.677 87.496c-.113.278.091.576.406.595.91.152 1.482 1.138 1.33 2.048-.112.278.091.576.407.595.278.113.576-.09.595-.406.377-1.466-.547-2.918-2.012-3.294-.409-.057-.706.146-.726.462zM318.908 77.533a.53.53 0 01-.393.704c-1.004.35-1.546 1.425-1.197 2.429a.528.528 0 01-.392.704.529.529 0 01-.704-.392c-.533-1.618.326-3.212 1.851-3.782.446-.036.724.076.835.337zM325.913 81.55a.529.529 0 01-.392.704c-1.004.35-1.547 1.424-1.197 2.428a.53.53 0 01-.393.705.529.529 0 01-.704-.393c-.533-1.617.327-3.211 1.851-3.781.484-.129.724.076.835.337z" fill="#F8B64C"/><path d="M270.8 107.981h-4c-.4 0-.8-.4-.8-.8s.3-.8.8-.8h4c.4 0 .8.4.8.8-.1.5-.4.8-.8.8zM278.5 96.08c-.3 0-.5-.2-.7-.4l-1.8-3.6c-.2-.4 0-.8.3-1 .4-.2.8 0 1 .3l1.8 3.6c.3.3.2 1.1-.6 1.1z" fill="#CD807D"/><path d="M272.8 122.081l-2-3.5c-.2-.4-.1-.8.3-1 .4-.2.8-.1 1 .3l2 3.5c.2.4.1.8-.3 1-.3.2-.8-.1-1-.3z" fill="#84DBFF"/><path d="M267.4 118.181a1.3 1.3 0 10-.001-2.601 1.3 1.3 0 00.001 2.601z" fill="#FFD15C"/><path d="M269.4 99.28a1.3 1.3 0 100-2.6 1.3 1.3 0 000 2.6z" fill="#84DBFF"/><path fill-rule="evenodd" clip-rule="evenodd" d="M282.154 154.703c-.969-.396-1.938-.792-2.893-1.366l-.341-.205c-9.006-5.411-11.947-17.207-6.536-26.212a19.056 19.056 0 0126.212-6.536l.341.205c.955.574 1.801 1.175 2.565 1.913 6.712 5.983 8.426 16.112 3.629 24.094-4.796 7.982-14.544 11.225-22.977 8.107zm-1.508-11.398c.682.874 1.514 1.652 2.469 2.226l.273.164c4.912 2.952 11.356 1.345 14.307-3.567 2.952-4.912 1.413-11.315-3.567-14.307l-.273-.164c-1.023-.615-2.033-.943-3.125-1.135a10.378 10.378 0 00-10.909 4.866 10.378 10.378 0 00.825 11.917z" fill="#F1543F"/><path d="M290.73 126.522c1.175-1.801 2.923-3.165 5.107-3.71 1.311-.326 2.444-1.131 3.1-2.223.955.574 1.76 1.244 2.565 1.913-1.161 1.624-2.827 2.851-4.902 3.368-1.093.273-2.103.873-2.772 1.678a10.887 10.887 0 00-3.098-1.026zM279.261 153.337c.587-1.133.834-2.47.507-3.781-.585-2.116-.202-4.3.878-6.251.682.874 1.446 1.611 2.469 2.226-.438 1.037-.52 2.102-.18 3.235.518 2.075.216 4.123-.672 5.91-1.078-.369-2.047-.765-3.002-1.339z" fill="#fff"/><path d="M279.768 149.556c-.517-2.075-.202-4.3.877-6.251-2.673-3.278-3.12-8.097-.825-11.917a10.38 10.38 0 0110.91-4.866c1.175-1.801 2.923-3.165 5.107-3.71 1.311-.326 2.376-1.172 3.1-2.223l-.341-.205a19.056 19.056 0 00-26.212 6.536 19.057 19.057 0 006.535 26.212l.341.205c.588-1.133.835-2.47.508-3.781z" fill="#FFD15C"/><path d="M284.368 149.627c.041-.068.082-.136.191-.164.219-.054.355.028.341.205l.436 1.748c.055.218-.027.355-.205.341-.218.054-.355-.028-.341-.205l-.436-1.747s-.027-.11.014-.178z" fill="#84DBFF"/><path d="M296.502 150.604c.11-.027.178.014.246.055.136.082.191.3.041.396l-1.039 1.418c-.082.137-.3.191-.395.041-.137-.082-.191-.3-.041-.396l1.038-1.419c-.068-.041.041-.068.15-.095z" fill="#fff"/><path d="M291.395 153.385c.027.109-.014.178-.055.246-.082.136-.3.191-.395.041l-1.419-1.039c-.137-.082-.191-.3-.041-.396.082-.136.3-.19.396-.04l1.419 1.038c.041-.068.068.041.095.15z" fill="#FFD15C"/><path d="M300.302 141.652c-.041.068-.082.136-.054.246.054.218.191.3.341.205l1.747-.436c.219-.055.301-.191.205-.341-.095-.15-.191-.301-.341-.205l-1.706.367c-.11.028-.151.096-.192.164z" fill="#84DBFF"/><path d="M299.617 146.811c.041-.068.082-.136.191-.163.218-.055.355.027.341.204l.436 1.748c.054.218-.028.355-.205.341-.219.055-.355-.027-.341-.205l-.436-1.747s-.027-.11.014-.178zM305.833 138.011c.109-.027.177.014.246.055.136.082.191.3.04.396l-1.038 1.419c-.082.136-.3.19-.396.04-.136-.082-.191-.3-.041-.396l1.039-1.419c.041-.068.15-.095.15-.095z" fill="#FFD15C"/><path d="M304.853 133.151c.027.109-.014.177-.055.246-.082.136-.3.191-.395.04l-1.46-.97c-.137-.082-.191-.3-.041-.396.082-.136.3-.191.396-.04l1.419 1.038c.109-.027.136.082.136.082z" fill="#fff"/><path d="M300.707 128.152c-.041.069-.082.137-.055.246.054.219.191.301.341.205l1.748-.436c.218-.054.3-.19.205-.341-.055-.218-.191-.3-.342-.205l-1.747.436s-.109.027-.15.095z" fill="#84DBFF"/><path d="M299.112 125.244l.682.41 1.353-2.251-.682-.41c-1.092-.656-1.951-1.544-2.77-2.5-.232-.232-.464-.464-.846-.601a2.195 2.195 0 00-2.512.626c-.792 1.01-.479 2.498.613 3.154.272.164.586.259.832.314 1.133.124 2.306.643 3.33 1.258zM297.076 128.478l.751.451.983-1.638-.75-.451c-.682-.41-1.242-1.024-1.801-1.639-.164-.191-.395-.423-.641-.478-.587-.26-1.351-.069-1.789.504-.56.778-.356 1.829.395 2.28.204.123.382.137.628.191.778.096 1.542.37 2.224.78zM282.454 154.048l.478.287.656-1.091-.478-.287c-.478-.287-.873-.71-1.269-1.134-.095-.15-.3-.273-.436-.355-.451-.178-.929-.001-1.243.368a1.048 1.048 0 00.272 1.556c.137.082.273.164.382.137.601.082 1.161.232 1.638.519zM282.688 151.496l.682.41.943-1.569-.682-.41c-.683-.41-1.242-1.025-1.733-1.598-.164-.191-.396-.424-.641-.478-.587-.26-1.352-.069-1.748.435-.56.778-.315 1.761.436 2.212.204.123.382.137.559.15a7.425 7.425 0 012.184.848z" fill="#F1543F"/></g></svg>